<?xml version="1.0" encoding="utf-8"?>
<!-- Generator: Adobe Illustrator 14.0.0, SVG Export Plug-In . SVG Version: 6.00 Build 43363)  -->
<!DOCTYPE svg PUBLIC "-//W3C//DTD SVG 1.1//EN" "http://www.w3.org/Graphics/SVG/1.1/DTD/svg11.dtd">
<svg version="1.1"
	 id="svg3230" xmlns:sodipodi="http://inkscape.sourceforge.net/DTD/sodipodi-0.dtd" sodipodi:docbase="C:\Documents and Settings\David Nelson\Archives\Svg\BC Road Signs" inkscape:version="0.43" sodipodi:version="0.32" xmlns:inkscape="http://www.inkscape.org/namespaces/inkscape" xmlns:dc="http://purl.org/dc/elements/1.1/" xmlns:cc="http://web.resource.org/cc/" xmlns:rdf="http://www.w3.org/1999/02/22-rdf-syntax-ns#" sodipodi:docname="R-001.svg" xmlns:svg="http://www.w3.org/2000/svg"
	 xmlns="http://www.w3.org/2000/svg" xmlns:xlink="http://www.w3.org/1999/xlink" x="0px" y="0px" width="1000px" height="1000px"
	 viewBox="0 0 1000 1000" enable-background="new 0 0 1000 1000" xml:space="preserve">
<sodipodi:namedview  inkscape:window-width="756" inkscape:pageopacity="1" inkscape:pageshadow="2" inkscape:cy="500" bordercolor="#000000" pagecolor="#808080" inkscape:window-height="540" borderopacity="1" inkscape:window-x="44" inkscape:window-y="60" showborder="true" inkscape:showpageshadow="false" inkscape:zoom="0.373" inkscape:cx="500" inkscape:current-layer="svg3230" id="base">
	</sodipodi:namedview>
<polygon id="polygon3515" fill="#FFFEFF" points="0,292.549 0,707.027 292.972,1000 707.451,1000 999.999,707.027 999.999,292.549 
	707.451,0 292.972,0 "/>
<rect x="43.647" y="563.66" transform="matrix(-0.6018 0.7986 -0.7986 -0.6018 640.1074 890.6747)" fill="#00FF18" width="108.746" height="82.497"/>
<polygon id="polygon3519" fill="#FF0000" points="26.672,303.557 303.979,26.249 696.443,26.249 973.75,303.557 973.75,696.021 
	696.443,973.327 303.979,973.327 26.672,696.021 "/>
<path fill="#FFFEFF" d="M91.5,631.5c17.092,16.394,42,42.999,79.542,43.775c50.37,1.042,91.807-41.069,92.294-94.835
	c0.414-45.69-28.744-61.929-50.804-79.88c-9.907-8.062-19.407-15.937-30.032-25.062c-22-20-47.019-39.054-48.715-60.101
	C132,393.25,154,367.75,181.167,374.167c10.057,2.375,21.667,11.333,36.411,23.972l31.336-35.77
	c-26.081-22.537-34.747-33.87-66.026-36.798c-47.211-4.419-96.944,38.104-96.944,85.943c0,24.132,11.431,47.842,27.519,62.659
	c19.051,17.358,46.994,43.285,67.739,59.797C194.75,544.979,204.25,553,209,559.75c4,5.75,5.5,13,5.648,20.267
	c0.571,27.938-19.904,47.09-44.454,46.571c-20.028-0.422-34.028-16.755-46.361-28.921"/>
<polygon id="polygon3527" fill="#FFFEFF" points="347.586,669.348 395.427,669.348 395.427,373.412 476.393,373.412 
	476.393,330.652 267.044,330.652 267.044,373.412 347.586,373.412 "/>
<g id="g4914">
	<path id="path3525" fill="#FFFEFF" d="M740.474,669.348h46.994V551.169h43.85c48.184-0.169,92.899-48.022,92.899-110.259
		c0-46.147-30.217-109.91-88.667-108.988h-95.076V669.348L740.474,669.348z"/>
	<path id="path3531" fill="#FF0000" d="M787.892,504.175V378.916h41.731c26.877-0.416,46.753,28.125,46.753,60.725
		c0,35.986-24.376,64.359-49.717,64.534H787.892z"/>
</g>
<path fill="#FFFFFF" d="M591,327.25c68.76,0,114.5,76.671,114.5,171.25S659.76,669.75,591,669.75S476.5,593.079,476.5,498.5
	S522.24,327.25,591,327.25z"/>
<path fill="#FF0000" d="M523,501.5c0,69.864,25.035,122.5,68.25,122.5s68.25-52.636,68.25-122.5S634.465,376,591.25,376
	S523,431.636,523,501.5z"/>
</svg>
